<?xml version="1.0" encoding="UTF-8"?>
<svg version="1.1" xmlns="http://www.w3.org/2000/svg" width="2000" height="2000">
<path d="M0 0 C660 0 1320 0 2000 0 C2000 660 2000 1320 2000 2000 C1340 2000 680 2000 0 2000 C0 1340 0 680 0 0 Z " fill="#000000" transform="translate(0,0)"/>
<path d="M0 0 C1.05509766 -0.00322266 2.11019531 -0.00644531 3.19726562 -0.00976562 C13.2943558 0.05858391 22.54894977 1.13400906 31.5625 5.875 C32.24256104 6.22651123 32.92262207 6.57802246 33.62329102 6.94018555 C50.35447292 15.8933726 61.15795847 29.94173547 67.75390625 47.48046875 C68.5625 50.3125 68.5625 50.3125 68.5625 54.3125 C69.26231582 54.31212028 69.96213163 54.31174056 70.68315399 54.31134933 C127.4781184 54.28074185 184.27308451 54.26145132 241.06805611 54.25064325 C244.42531967 54.25000233 247.78258324 54.24934332 251.1398468 54.24868393 C366.77874741 54.22634277 482.41700272 54.29209474 683.3436209 54.80347854 C686.57431925 54.81253313 689.80501765 54.82156868 693.03571606 54.83060217 C746.87800799 54.98127852 800.72026988 55.141147 854.5625 55.3125 C854.89008301 54.51223389 855.21766602 53.71196777 855.55517578 52.88745117 C855.9932959 51.82502197 856.43141602 50.76259277 856.8828125 49.66796875 C857.31352051 48.62020264 857.74422852 47.57243652 858.18798828 46.49291992 C866.71924796 26.75282759 879.7766463 14.83916574 898.9296875 5.70703125 C906.55233041 2.78091994 913.74334376 1.94857627 921.875 2 C922.79853271 2.00491455 923.72206543 2.0098291 924.67358398 2.01489258 C931.66645453 2.13466506 937.94974454 2.92883233 944.5625 5.3125 C945.5525 5.6528125 946.5425 5.993125 947.5625 6.34375 C955.13678822 9.20343025 961.24877919 13.29543591 967.5625 18.3125 C968.40039062 18.94027344 969.23828125 19.56804688 970.1015625 20.21484375 C981.65258829 30.06071811 989.56978626 46.34069498 991.5625 61.3125 C992.18440637 71.57575951 992.28639624 81.60644112 988.5625 91.3125 C988.21058594 92.28316406 987.85867188 93.25382813 987.49609375 94.25390625 C980.4476265 112.46826221 968.52737693 125.39613322 950.72265625 133.625 C948.35462013 134.59358019 945.98068822 135.47848983 943.5625 136.3125 C942.510625 136.704375 941.45875 137.09625 940.375 137.5 C927.9971349 141.0758277 913.69045959 140.3903067 901.5625 136.3125 C900.71429687 136.0340625 899.86609375 135.755625 898.9921875 135.46875 C882.98966146 129.64964962 869.28238095 117.50456519 861.5625 102.3125 C860.13683955 98.95800483 858.82785565 95.59368669 857.60546875 92.16015625 C856.72595731 89.75879357 855.72662613 87.58146665 854.5625 85.3125 C853.69246596 85.31306958 853.69246596 85.31306958 852.80485547 85.31365067 C804.73388695 85.34489399 756.66291634 85.36374497 708.59193897 85.37435675 C705.69914818 85.37499742 702.80635738 85.37565655 699.91356659 85.37631607 C587.84764007 85.40143957 475.78238265 85.29639204 267.24601781 84.82152146 C263.55023633 84.81246996 259.85445481 84.8034331 256.15867329 84.79439783 C193.62659541 84.64142422 131.09453761 84.48112632 68.5625 84.3125 C68.2575058 85.34575661 68.2575058 85.34575661 67.9463501 86.39988708 C67.54413239 87.75353111 67.54413239 87.75353111 67.13378906 89.13452148 C66.86858459 90.02960922 66.60338013 90.92469696 66.33013916 91.84690857 C61.44573687 107.53519163 48.99970354 120.33701297 35.1171875 128.51953125 C18.84985109 136.72470423 -1.43583497 139.86333776 -19.0625 134.25 C-38.09792852 127.61322692 -52.11707587 114.53867097 -60.9453125 96.6328125 C-61.43773437 95.53710938 -61.93015625 94.44140625 -62.4375 93.3125 C-62.78385498 92.62293213 -63.13020996 91.93336426 -63.48706055 91.22290039 C-66.95803914 83.71831189 -67.06950924 76.6734686 -67 68.5 C-67.03577148 66.58477539 -67.03577148 66.58477539 -67.07226562 64.63085938 C-67.0462329 47.57942144 -58.96786029 31.68507791 -47.4375 19.3125 C-34.23392162 6.56926826 -18.32919584 -0.27889829 0 0 Z " fill="#FDFDFD" transform="translate(537.4375,587.6875)"/>
<path d="M0 0 C12.56535458 11.70543506 21.59488492 26.97784932 22.41015625 44.3515625 C22.45863357 46.65072567 22.48847743 48.95035469 22.5 51.25 C22.50636475 52.33877441 22.51272949 53.42754883 22.51928711 54.54931641 C22.24410719 72.06245782 15.1080722 88.14523716 2.71875 100.44921875 C-4.52735929 107.24765175 -11.85801338 112.03961379 -21 116 C-21.93972656 116.41636719 -22.87945313 116.83273437 -23.84765625 117.26171875 C-38.58705546 122.79627576 -57.5202086 121.86795199 -72 116 C-81.18788669 111.81719735 -88.89215607 106.18468548 -96 99 C-96.62261719 98.41089844 -97.24523437 97.82179688 -97.88671875 97.21484375 C-110.92944937 83.87901806 -114.53323628 65.46863844 -114.41796875 47.52148438 C-113.95158539 29.7172997 -106.55013492 14.32299694 -94.05078125 1.7578125 C-85.82623671 -5.97881249 -75.62263248 -11.35707993 -65 -15 C-64.29101562 -15.24492188 -63.58203125 -15.48984375 -62.8515625 -15.7421875 C-41.0479128 -21.84052631 -16.99295899 -13.72672441 0 0 Z " fill="#FEFEFE" transform="translate(1046,1280)"/>
<path d="M0 0 C10.80787816 6.75031298 18.94226683 16.18540617 22.4140625 28.5546875 C25.04757838 40.82875259 24.07296624 54.55359411 17.890625 65.71484375 C9.97350824 77.22440944 0.15140432 84.97015342 -13.3984375 88.4296875 C-28.63560017 89.67353751 -41.24069702 86.83591963 -53.1484375 76.9921875 C-62.63422369 68.20169453 -66.84490085 56.83944551 -67.69921875 44.13671875 C-68.01777422 28.49396875 -63.20765342 17.88346298 -52.7734375 6.4296875 C-38.55009554 -7.24021703 -17.03796131 -9.14100146 0 0 Z " fill="#FBFBFB" transform="translate(882.4609375,1468.3203125)"/>
<path d="M0 0 C8.79373118 7.27603139 15.59837747 17.24905166 16.98339844 28.78149414 C17.12028458 31.39507024 17.15155921 33.9807453 17.12109375 36.59765625 C17.11279541 37.51973877 17.10449707 38.44182129 17.09594727 39.3918457 C16.74960535 53.40698434 11.54386628 63.92145624 1.43359375 73.59765625 C-10.81633946 83.99536588 -24.99042624 84.48155733 -40.31640625 83.28515625 C-51.649602 80.91926508 -60.51258061 72.66843244 -67.0703125 63.3984375 C-74.25976377 51.20566905 -75.23159655 36.55334519 -72.66796875 22.80859375 C-68.56271045 10.63316956 -59.60787041 0.41476432 -48.31640625 -5.58984375 C-31.81681606 -13.11730656 -14.42636076 -10.67988596 0 0 Z " fill="#FCFCFC" transform="translate(1126.31640625,1472.71484375)"/>
<path d="M0 0 C21 0 21 0 25.83984375 4.2578125 C27.46899414 7.06176758 27.46899414 7.06176758 28.9375 10.125 C30.12140693 12.23623193 31.30632955 14.34689457 32.4921875 16.45703125 C33.06549805 17.54193848 33.63880859 18.6268457 34.22949219 19.74462891 C37.05969705 24.94842808 40.32387844 29.85678579 43.5625 34.8125 C44.67199005 36.54560933 45.77762671 38.28119312 46.87890625 40.01953125 C47.56835327 41.10391479 47.56835327 41.10391479 48.27172852 42.21020508 C50.89494767 46.44463441 53.43722901 50.72871502 56 55 C56.33 36.85 56.66 18.7 57 0 C63.6 0 70.2 0 77 0 C77 29.7 77 59.4 77 90 C70.07 90 63.14 90 56 90 C50.10005213 82.8506514 50.10005213 82.8506514 48.51953125 79.17578125 C45.5592039 72.82792738 41.69933123 67.10342548 37.875 61.25 C36.55887408 59.19336184 35.24374949 57.1360825 33.9296875 55.078125 C30.03628936 48.99309361 26.00990529 43.01485793 22 37 C21.67 54.49 21.34 71.98 21 90 C14.07 90 7.14 90 0 90 C0 60.3 0 30.6 0 0 Z " fill="#FCFCFC" transform="translate(1186,1465)"/>
<path d="M0 0 C21 0 21 0 25.83984375 4.2578125 C27.46899414 7.06176758 27.46899414 7.06176758 28.9375 10.125 C30.12140693 12.23623193 31.30632955 14.34689457 32.4921875 16.45703125 C33.06549805 17.54193848 33.63880859 18.6268457 34.22949219 19.74462891 C37.05969705 24.94842808 40.32387844 29.85678579 43.5625 34.8125 C44.67199005 36.54560933 45.77762671 38.28119312 46.87890625 40.01953125 C47.56835327 41.10391479 47.56835327 41.10391479 48.27172852 42.21020508 C50.89494767 46.44463441 53.43722901 50.72871502 56 55 C56.33 36.85 56.66 18.7 57 0 C63.6 0 70.2 0 77 0 C77 29.7 77 59.4 77 90 C70.07 90 63.14 90 56 90 C50.10005213 82.8506514 50.10005213 82.8506514 48.51953125 79.17578125 C45.5592039 72.82792738 41.69933123 67.10342548 37.875 61.25 C36.55887408 59.19336184 35.24374949 57.1360825 33.9296875 55.078125 C30.03628936 48.99309361 26.00990529 43.01485793 22 37 C21.67 54.49 21.34 71.98 21 90 C14.07 90 7.14 90 0 90 C0 60.3 0 30.6 0 0 Z " fill="#FCFCFC" transform="translate(915,1465)"/>
<path d="M0 0 C3.64110179 0.55909966 6.14400253 1.46968107 9.20703125 3.50390625 C9.95791016 3.99697266 10.70878906 4.49003906 11.48242188 4.99804688 C12.25134766 5.51431641 13.02027344 6.03058594 13.8125 6.5625 C14.60076172 7.08263672 15.38902344 7.60277344 16.20117188 8.13867188 C18.13892853 9.41876566 20.07152677 10.7059808 22 12 C20.68058998 15.54665291 19.11113159 18.63088664 17.0859375 21.82421875 C16.498125 22.75685547 15.9103125 23.68949219 15.3046875 24.65039062 C14.34949219 26.15375977 14.34949219 26.15375977 13.375 27.6875 C12.00696202 29.85753699 10.63980399 32.02812892 9.2734375 34.19921875 C8.9210199 34.7584201 8.56860229 35.31762146 8.20550537 35.89376831 C4.42372446 41.90052458 0.71076173 47.94917161 -3 54 C-8.130288 62.35644271 -13.2932472 70.6909874 -18.5 79 C-24.42319111 88.45351301 -30.28851796 97.94134609 -36.12719727 107.44726562 C-41.09730379 115.53879286 -46.09007445 123.61597053 -51.10400391 131.68041992 C-51.60464355 132.48713135 -52.1052832 133.29384277 -52.62109375 134.125 C-53.0586499 134.82882812 -53.49620605 135.53265625 -53.94702148 136.2578125 C-55.04104178 138.0154871 -55.04104178 138.0154871 -56 140 C-61.11575056 138.29816715 -65.35015815 135.32246469 -69.8125 132.375 C-70.60076172 131.859375 -71.38902344 131.34375 -72.20117188 130.8125 C-74.1367352 129.54558583 -76.06953942 128.27467036 -78 127 C-72.26526726 115.97210328 -65.5912706 105.52905062 -59 95 C-57.182192 92.09465662 -55.36439208 89.18930819 -53.54663086 86.28393555 C-52.29772989 84.28782607 -51.04853937 82.29189773 -49.79907227 80.29614258 C-45.16446238 72.88538185 -40.57381724 65.44840755 -36 58 C-30.19872036 48.55268439 -24.35123478 39.13580131 -18.46655273 29.74023438 C-12.2735565 19.84998874 -6.13159943 9.92839611 0 0 Z " fill="#FCFCFC" transform="translate(1335,854)"/>
<path d="M0 0 C4.88036541 1.67491831 8.99152948 4.36791961 13.3125 7.125 C14.42334961 7.82689453 14.42334961 7.82689453 15.55664062 8.54296875 C17.37341968 9.69164196 19.18703037 10.84532369 21 12 C20.53390217 17.33893874 17.6086192 21.1419169 14.75 25.5 C13.64876271 27.2103089 12.54853739 28.92126974 11.44921875 30.6328125 C10.59336182 31.95974121 10.59336182 31.95974121 9.72021484 33.31347656 C6.95182149 37.63697932 4.2568802 42.00512631 1.5625 46.375 C0.46745738 48.14714126 -0.62759476 49.91927665 -1.72265625 51.69140625 C-2.81511246 53.46093238 -3.90756044 55.23046359 -5 57 C-7.1239327 60.43816071 -9.24897545 63.87563242 -11.375 67.3125 C-11.90818848 68.17447998 -12.44137695 69.03645996 -12.99072266 69.92456055 C-17.69668879 77.52494131 -22.44055511 85.1013747 -27.18505859 92.67773438 C-32.65627606 101.42604915 -38.06756585 110.21045594 -43.45825195 119.00854492 C-44.69401992 121.02292831 -45.93308094 123.03529603 -47.17578125 125.04541016 C-48.43257803 127.08097688 -49.67940869 129.1227194 -50.91796875 131.16943359 C-51.53285156 132.1692627 -52.14773438 133.1690918 -52.78125 134.19921875 C-53.32845703 135.09858154 -53.87566406 135.99794434 -54.43945312 136.92456055 C-56 139 -56 139 -59 140 C-61.0847168 139.01196289 -61.0847168 139.01196289 -63.44921875 137.47265625 C-64.29677734 136.92802734 -65.14433594 136.38339844 -66.01757812 135.82226562 C-66.89865234 135.24154297 -67.77972656 134.66082031 -68.6875 134.0625 C-69.58017578 133.48564453 -70.47285156 132.90878906 -71.39257812 132.31445312 C-73.60117095 130.88536365 -75.80311214 129.4469932 -78 128 C-76.51373835 122.56745743 -73.91970205 118.4086772 -70.875 113.75 C-69.78360769 112.05177546 -68.69385217 110.35249824 -67.60546875 108.65234375 C-67.02200684 107.74210449 -66.43854492 106.83186523 -65.83740234 105.89404297 C-62.56265287 100.73607323 -59.37935569 95.52201743 -56.1875 90.3125 C-50.99541441 81.85141503 -45.7719348 73.41156586 -40.5 65 C-35.29311952 56.69106067 -30.1308429 48.35610392 -25 40 C-19.57520509 31.16622828 -14.11968145 22.35292546 -8.625 13.5625 C-7.98820312 12.54349609 -7.35140625 11.52449219 -6.6953125 10.47460938 C-2.27220857 3.40831285 -2.27220857 3.40831285 0 0 Z " fill="#FCFCFC" transform="translate(1151,1151)"/>
<path d="M0 0 C3.32953996 1.24635186 6.23682594 2.65165672 9.20703125 4.6015625 C9.95791016 5.09140625 10.70878906 5.58125 11.48242188 6.0859375 C12.25134766 6.59382812 13.02027344 7.10171875 13.8125 7.625 C14.60076172 8.140625 15.38902344 8.65625 16.20117188 9.1875 C18.1367352 10.45441417 20.06953942 11.72532964 22 13 C18.06100062 20.58384657 13.67276062 27.78081005 9.08227539 34.98291016 C4.71495768 41.84273025 0.43908502 48.75543392 -3.8125 55.6875 C-9.00500535 64.14833104 -14.22812227 72.58839216 -19.5 81 C-26.09070921 91.51869885 -32.60389753 102.08379398 -39.1015625 112.66015625 C-44.71043484 121.78823859 -50.35428662 130.89467327 -56 140 C-59.64110179 139.44090034 -62.14400253 138.53031893 -65.20703125 136.49609375 C-65.95791016 136.00302734 -66.70878906 135.50996094 -67.48242188 135.00195312 C-68.25134766 134.48568359 -69.02027344 133.96941406 -69.8125 133.4375 C-70.60076172 132.91736328 -71.38902344 132.39722656 -72.20117188 131.86132812 C-74.13892853 130.58123434 -76.07152677 129.2940192 -78 128 C-76.622517 124.27848962 -74.92153949 121.03832616 -72.83203125 117.66796875 C-72.19394531 116.63478516 -71.55585937 115.60160156 -70.8984375 114.53710938 C-70.21007813 113.43173828 -69.52171875 112.32636719 -68.8125 111.1875 C-68.08954421 110.02036778 -67.36689271 108.85304703 -66.64453125 107.68554688 C-61.34008927 99.12095958 -55.99656914 90.58059256 -50.64770508 82.04370117 C-45.38016078 73.63009968 -40.17823735 65.1770537 -34.98486328 56.7175293 C-30.48414375 49.39305418 -25.94237615 42.0955651 -21.375 34.8125 C-14.14069408 23.27450751 -7.05022453 11.65119876 0 0 Z " fill="#FCFCFC" transform="translate(1243,1002)"/>
<path d="M0 0 C1.65063477 2.05688477 1.65063477 2.05688477 3.44140625 4.94140625 C4.4322522 6.51716431 4.4322522 6.51716431 5.44311523 8.12475586 C6.14958645 9.27066464 6.85604782 10.41657949 7.5625 11.5625 C8.29308057 12.72939414 9.02493905 13.89548913 9.75805664 15.06079102 C10.85003062 16.79660834 11.94137651 18.53276972 13.02885437 20.27140808 C15.59627963 24.37535692 18.22603562 28.42771424 20.9375 32.4375 C25.41183693 39.08737011 29.80432388 45.78976902 34.1875 52.5 C34.55366425 53.06049042 34.91982849 53.62098083 35.29708862 54.19845581 C40.974965 62.89083066 46.64758969 71.58664863 52.31494141 80.28588867 C55.31978098 84.89695594 58.32920287 89.50491889 61.34988403 94.10562134 C62.88222176 96.43948333 64.41324685 98.77420545 65.94433594 101.10888672 C67.02528852 102.75580531 68.10831081 104.40136487 69.19140625 106.046875 C73.27865316 112.27992654 77.2242138 118.57322477 81 125 C63.4516129 138 63.4516129 138 59 138 C57.34936523 135.94311523 57.34936523 135.94311523 55.55859375 133.05859375 C54.89770752 132.00760498 54.23682129 130.95661621 53.5559082 129.8737793 C52.84974028 128.7283725 52.1436049 127.58294565 51.4375 126.4375 C50.70983875 125.27500708 49.98091079 124.11330612 49.25073242 122.95239258 C48.16190022 121.2212264 47.0736646 119.48973505 45.98927307 117.75578308 C43.33635893 113.51531951 40.61306897 109.33146505 37.8125 105.1875 C32.36567556 97.09028319 27.06934166 88.89676331 21.75927734 80.70947266 C18.09348542 75.06376646 14.41308197 69.4275786 10.734375 63.7902832 C7.53214951 58.88297127 4.33188509 53.97441184 1.13671875 49.0625 C-6.50173715 37.32491083 -14.2017247 25.63206427 -22 14 C-18.56090094 10.23546189 -14.65695465 7.54940675 -10.4375 4.75 C-9.76525391 4.29109375 -9.09300781 3.8321875 -8.40039062 3.359375 C-3.36632719 0 -3.36632719 0 0 0 Z " fill="#FCFCFC" transform="translate(770,1037)"/>
<path d="M0 0 C0.66 0 1.32 0 2 0 C3.35351562 1.78149414 3.35351562 1.78149414 4.90625 4.28515625 C5.47964111 5.20006836 6.05303223 6.11498047 6.64379883 7.05761719 C7.25634521 8.04922852 7.8688916 9.04083984 8.5 10.0625 C9.78393011 12.11144593 11.06908852 14.15962268 12.35546875 16.20703125 C13.297854 17.71064209 13.297854 17.71064209 14.25927734 19.24462891 C16.38999356 22.61731659 18.58128214 25.94326806 20.8125 29.25 C25.28556763 35.90085659 29.6795597 42.60193822 34.0625 49.3125 C34.42526031 49.86788452 34.78802063 50.42326904 35.16177368 50.9954834 C37.02897371 53.85431977 38.89571241 56.71345695 40.76220703 59.57275391 C44.33835346 65.0505405 47.91947524 70.52507476 51.5 76 C55.4907906 82.10268839 59.48136794 88.20551436 63.46908569 94.31021118 C65.00554636 96.66226779 66.54231303 99.0141244 68.07910156 101.3659668 C69.1506873 103.00615387 70.22183582 104.64662656 71.29296875 106.28710938 C72.28296875 107.80208008 72.28296875 107.80208008 73.29296875 109.34765625 C73.91606934 110.30559082 74.53916992 111.26352539 75.18115234 112.25048828 C76.38002801 114.06280208 77.60398156 115.85880865 78.85400391 117.63623047 C79.69390869 118.83530029 79.69390869 118.83530029 80.55078125 120.05859375 C81.04876221 120.75138428 81.54674316 121.4441748 82.05981445 122.15795898 C82.37007568 122.76583252 82.68033691 123.37370605 83 124 C81.40076273 128.79771181 77.22923577 130.54335453 73.125 133.25 C72.29613281 133.8171875 71.46726562 134.384375 70.61328125 134.96875 C69.41638672 135.76539063 69.41638672 135.76539063 68.1953125 136.578125 C67.46328613 137.06700195 66.73125977 137.55587891 65.97705078 138.05957031 C64 139 64 139 61 138 C59.34936523 135.82958984 59.34936523 135.82958984 57.55859375 132.9609375 C56.5672644 131.38928833 56.5672644 131.38928833 55.5559082 129.78588867 C55.03729721 128.95086319 55.03729721 128.95086319 54.50820923 128.09896851 C53.06943715 125.78237527 51.61286669 123.47717993 50.15708923 121.17124939 C49.4335383 120.02476103 48.71092989 118.87767729 47.98927307 117.72999573 C45.32957669 113.50317757 42.60618193 109.32661631 39.8125 105.1875 C36.13562088 99.72052092 32.52238469 94.21526271 28.9375 88.6875 C23.85007443 80.84315039 18.74396691 73.0113066 13.625 65.1875 C9.38145805 58.70010342 5.13795056 52.21268673 0.8984375 45.72265625 C0.24593018 44.72379395 -0.40657715 43.72493164 -1.07885742 42.69580078 C-2.34168202 40.75943763 -3.60232792 38.82165153 -4.8605957 36.88232422 C-7.53604474 32.75923815 -10.22354428 28.65090998 -13.00390625 24.59765625 C-13.66229492 23.6226416 -13.66229492 23.6226416 -14.33398438 22.62792969 C-15.46309556 20.95939417 -16.60777241 19.30141992 -17.75390625 17.64453125 C-19 15 -19 15 -18.30664062 12.99365234 C-16.84494006 10.76341191 -15.61536366 9.82077213 -13.33984375 8.45703125 C-12.62892578 8.02326172 -11.91800781 7.58949219 -11.18554688 7.14257812 C-10.44369141 6.70365234 -9.70183594 6.26472656 -8.9375 5.8125 C-7.46691967 4.92405086 -5.99684057 4.03477137 -4.52734375 3.14453125 C-3.87499756 2.75628174 -3.22265137 2.36803223 -2.55053711 1.96801758 C-1.01548325 1.09059735 -1.01548325 1.09059735 0 0 Z " fill="#FCFCFC" transform="translate(672,890)"/>
<path d="M0 0 C3.33885426 1.38578012 4.7997917 2.74763312 6.6640625 5.82421875 C7.37888794 6.98352905 7.37888794 6.98352905 8.1081543 8.16625977 C8.60871338 8.99826904 9.10927246 9.83027832 9.625 10.6875 C10.7055209 12.44103574 11.78756821 14.19363177 12.87109375 15.9453125 C13.40460449 16.81188477 13.93811523 17.67845703 14.48779297 18.57128906 C16.48694503 21.782068 18.57058204 24.92859127 20.6875 28.0625 C25.24434543 34.83797073 29.72237284 41.6638054 34.1875 48.5 C34.5533017 49.05994659 34.91910339 49.61989319 35.29598999 50.19680786 C40.97534664 58.89142962 46.64716379 67.59097356 52.31933594 76.2902832 C56.82172044 83.19493466 61.32585672 90.09843933 65.83447266 96.99902344 C66.89523393 98.62280055 67.95544099 100.24693967 69.015625 101.87109375 C69.67949219 102.886875 70.34335937 103.90265625 71.02734375 104.94921875 C71.67429199 105.94099121 72.32124023 106.93276367 72.98779297 107.95458984 C74.40173576 110.09454645 75.82876667 112.21762123 77.28173828 114.33056641 C78.01505371 115.4035498 78.74836914 116.4765332 79.50390625 117.58203125 C80.17365479 118.54987549 80.84340332 119.51771973 81.53344727 120.51489258 C83 123 83 123 83 126 C80.35237455 128.42956656 77.24996088 130.28070053 74.25 132.25 C73.425 132.8171875 72.6 133.384375 71.75 133.96875 C70.95078125 134.49984375 70.1515625 135.0309375 69.328125 135.578125 C68.5949707 136.06700195 67.86181641 136.55587891 67.10644531 137.05957031 C65 138 65 138 62.87133789 137.83935547 C59.52067923 136.33647687 58.03074898 132.91122164 56.1875 129.875 C55.2080013 128.31189171 54.22747768 126.74942535 53.24609375 125.1875 C52.72257324 124.34703125 52.19905273 123.5065625 51.65966797 122.640625 C48.75079645 118.01244695 45.74499359 113.4477169 42.75 108.875 C41.46323398 106.90384666 40.17677909 104.93249018 38.890625 102.9609375 C38.24673828 101.97448242 37.60285156 100.98802734 36.93945312 99.97167969 C33.79170093 95.14861326 30.64593087 90.32425453 27.5 85.5 C26.25000993 83.58332685 25.00000992 81.66666019 23.75 79.75 C21.25 75.91666667 18.75 72.08333333 16.25 68.25 C15.6307666 67.3005249 15.0115332 66.3510498 14.37353516 65.37280273 C13.12835834 63.46349917 11.88324079 61.55415696 10.63818359 59.64477539 C7.43988314 54.74012847 4.24043522 49.83623598 1.0390625 44.93359375 C-2.09197535 40.13840483 -5.2187507 35.34045944 -8.34326172 30.54101562 C-9.87187985 28.19650377 -11.40595442 25.85566419 -12.94140625 23.515625 C-13.77365683 22.23972637 -14.60570677 20.96369683 -15.4375 19.6875 C-16.13746094 18.61886719 -16.83742188 17.55023437 -17.55859375 16.44921875 C-19 14 -19 14 -19 12 C-17.36352539 10.77905273 -17.36352539 10.77905273 -15.09765625 9.43359375 C-14.29005859 8.94826172 -13.48246094 8.46292969 -12.65039062 7.96289062 C-11.79638672 7.45951172 -10.94238281 6.95613281 -10.0625 6.4375 C-8.38609206 5.4372475 -6.71027865 4.43599767 -5.03515625 3.43359375 C-4.2862915 2.99072021 -3.53742676 2.54784668 -2.76586914 2.09155273 C-1.0441682 1.12072784 -1.0441682 1.12072784 0 0 Z " fill="#FCFCFC" transform="translate(576,744)"/>
<path d="M0 0 C1.64453125 1.0625 1.64453125 1.0625 2.64453125 4.0625 C2.02368164 5.87182617 2.02368164 5.87182617 0.9921875 7.85546875 C0.62802734 8.56767578 0.26386719 9.27988281 -0.11132812 10.01367188 C-0.69624023 11.1206543 -0.69624023 11.1206543 -1.29296875 12.25 C-1.67904297 12.99958984 -2.06511719 13.74917969 -2.46289062 14.52148438 C-3.41818632 16.37310689 -4.38568452 18.21842452 -5.35546875 20.0625 C-5.95230469 19.77375 -6.54914063 19.485 -7.1640625 19.1875 C-16.39309413 15.23807785 -26.719296 14.17361456 -36.45703125 16.9453125 C-43.41126824 20.11778919 -47.47504896 24.8031057 -51.23046875 31.3125 C-53.52821532 38.97165523 -53.21848419 45.92399944 -49.5390625 53.06640625 C-45.53727047 59.81530304 -40.91674632 63.90344747 -33.35546875 66.0625 C-30.30969543 66.46324092 -27.30067478 66.58792249 -24.23046875 66.625 C-23.10282104 66.64699463 -23.10282104 66.64699463 -21.95239258 66.66943359 C-16.90024668 66.57760657 -13.3710567 65.42812229 -8.98876953 62.91772461 C-7.35546875 62.0625 -7.35546875 62.0625 -5.35546875 62.0625 C-3.98901174 64.66086136 -2.63716206 67.26515556 -1.29296875 69.875 C-0.90302734 70.61298828 -0.51308594 71.35097656 -0.11132812 72.11132812 C0.25283203 72.82353516 0.61699219 73.53574219 0.9921875 74.26953125 C1.33258057 74.9241333 1.67297363 75.57873535 2.02368164 76.25317383 C2.64453125 78.0625 2.64453125 78.0625 1.64453125 81.0625 C-9.49766291 87.99039563 -23.88442589 89.93873269 -36.6484375 87.41015625 C-52.06857051 83.11757442 -63.33576053 74.81057123 -71.35546875 61.0625 C-76.42228435 51.20488211 -77.01558992 39.09009814 -74.484375 28.375 C-69.71065651 15.10249744 -60.4846693 4.72819361 -47.73046875 -1.3125 C-31.50792885 -8.48246208 -16.0039558 -6.92062953 0 0 Z " fill="#FAFAFA" transform="translate(808.35546875,1468.9375)"/>
<path d="M0 0 C4.66177086 0.96988126 8.1851069 3.32567975 12.1875 5.8125 C12.92419922 6.25142578 13.66089844 6.69035156 14.41992188 7.14257812 C15.47083008 7.79323242 15.47083008 7.79323242 16.54296875 8.45703125 C17.18258545 8.84866455 17.82220215 9.24029785 18.48120117 9.64379883 C20 11 20 11 20.87988281 12.86352539 C21.04856836 15.86386536 20.00737919 17.21860069 18.37890625 19.7265625 C17.78142578 20.66242187 17.18394531 21.59828125 16.56835938 22.5625 C15.90642578 23.573125 15.24449219 24.58375 14.5625 25.625 C13.16684646 27.80396907 11.77235367 29.98368196 10.37890625 32.1640625 C10.01721344 32.72635559 9.65552063 33.28864868 9.28286743 33.86798096 C5.43219418 39.85696984 1.71506681 45.92616788 -2 52 C-7.79945168 61.44842608 -13.64877627 70.86421633 -19.53344727 80.25976562 C-25.7264435 90.15001126 -31.86840057 100.07160389 -38 110 C-42.88036541 108.32508169 -46.99152948 105.63208039 -51.3125 102.875 C-52.42334961 102.17310547 -52.42334961 102.17310547 -53.55664062 101.45703125 C-55.37341968 100.30835804 -57.18703037 99.15467631 -59 98 C-58.42661046 94.10898811 -57.29904064 91.47791833 -55.18359375 88.17578125 C-54.59255859 87.24314453 -54.00152344 86.31050781 -53.39257812 85.34960938 C-52.74740234 84.34736328 -52.10222656 83.34511719 -51.4375 82.3125 C-50.06023162 80.14254009 -48.68396292 77.97194542 -47.30859375 75.80078125 C-46.95308441 75.2415799 -46.59757507 74.68237854 -46.23129272 74.10623169 C-42.42257595 68.11071345 -38.71041182 62.05673519 -35 56 C-23.48077469 37.24079936 -11.77730041 18.59804608 0 0 Z " fill="#FCFCFC" transform="translate(1409,735)"/>
<path d="M0 0 C2.84723579 2.69213495 5.03084442 5.3536581 7.1015625 8.67578125 C7.6685083 9.57780273 8.2354541 10.47982422 8.81958008 11.40917969 C9.41536865 12.36727539 10.01115723 13.32537109 10.625 14.3125 C11.89070455 16.32498815 13.15763382 18.33670656 14.42578125 20.34765625 C15.04146973 21.32492676 15.6571582 22.30219727 16.29150391 23.30908203 C18.41673496 26.6563665 20.59696213 29.96203984 22.8125 33.25 C29.57550944 43.30682176 36.17280011 53.47302727 42.79541016 63.62255859 C44.969574 66.95417712 47.14680239 70.28378748 49.32421875 73.61328125 C50.67453429 75.67965148 52.02479706 77.7460562 53.375 79.8125 C53.99914795 80.76640625 54.6232959 81.7203125 55.26635742 82.703125 C55.84619385 83.59128906 56.42603027 84.47945312 57.0234375 85.39453125 C57.52794434 86.16643799 58.03245117 86.93834473 58.55224609 87.73364258 C59.03000488 88.48154053 59.50776367 89.22943848 60 90 C60.5770166 90.85811279 61.1540332 91.71622559 61.74853516 92.6003418 C62.16151855 93.392229 62.57450195 94.18411621 63 95 C61.85438723 98.4368383 61.23320965 98.78612559 58.2890625 100.6640625 C57.53882813 101.14617187 56.78859375 101.62828125 56.015625 102.125 C55.22671875 102.62 54.4378125 103.115 53.625 103.625 C52.84382812 104.12773438 52.06265625 104.63046875 51.2578125 105.1484375 C45.44319784 108.85226739 45.44319784 108.85226739 42 110 C41.4423999 109.1181604 41.4423999 109.1181604 40.87353516 108.21850586 C34.59007779 98.28986868 28.30869341 88.3658825 21.75366211 78.61376953 C18.34998885 73.54441033 15.01159047 68.43435302 11.6875 63.3125 C11.14029297 62.46945312 10.59308594 61.62640625 10.02929688 60.7578125 C7.8000442 57.32137388 5.5724559 53.88385975 3.34570312 50.44580078 C2.25234868 48.75799173 1.15851869 47.07049063 0.06420898 45.38330078 C-1.01300274 43.72229624 -2.08902875 42.06052207 -3.16381836 40.39794922 C-5.89946027 36.17891646 -8.6740838 31.99356517 -11.51953125 27.84765625 C-12.082771 27.02217285 -12.64601074 26.19668945 -13.22631836 25.34619141 C-14.30288777 23.7733447 -15.38799431 22.20629809 -16.48266602 20.64599609 C-16.96018311 19.94684082 -17.4377002 19.24768555 -17.9296875 18.52734375 C-18.35491699 17.91624756 -18.78014648 17.30515137 -19.21826172 16.67553711 C-20 15 -20 15 -19 12 C-17.46533203 10.77319336 -17.46533203 10.77319336 -15.5078125 9.58984375 C-14.80269531 9.15736328 -14.09757813 8.72488281 -13.37109375 8.27929688 C-12.62988281 7.83650391 -11.88867188 7.39371094 -11.125 6.9375 C-9.66916713 6.05095152 -8.21343418 5.16423893 -6.7578125 4.27734375 C-6.1095752 3.88796631 -5.46133789 3.49858887 -4.79345703 3.09741211 C-3.17076523 2.10449084 -1.58286965 1.05524643 0 0 Z " fill="#FCFCFC" transform="translate(864,1183)"/>
<path d="M0 0 C6.93 0 13.86 0 21 0 C21.0680254 8.82376658 21.1229592 17.64735638 21.15543652 26.47132683 C21.17103121 30.56952606 21.19215479 34.66753516 21.22631836 38.765625 C21.25913478 42.72732513 21.2768995 46.68884343 21.28463173 50.6506691 C21.29013556 52.15520206 21.30088221 53.65972611 21.31719017 55.16418076 C21.43584029 66.57327555 21.18477023 76.70634511 12.96484375 85.30859375 C6.44943526 90.91728536 -0.83323374 92.37310144 -9.23828125 92.28515625 C-15.41613171 91.64727353 -20.87415047 89.18556993 -26.25 86.1875 C-28 84 -28 84 -28.0625 80.9375 C-26.92081152 75.81109485 -24.89895583 70.88429104 -23 66 C-20.74370103 67.09252371 -18.74608279 68.17842831 -16.6875 69.625 C-13.16897041 71.42517793 -10.907877 71.48848462 -7 71 C-4.24670979 69.20437595 -2.47372539 67.94745078 -1 65 C-0.87951849 62.93776648 -0.82259073 60.87171371 -0.79467773 58.80615234 C-0.77473251 57.50495453 -0.75478729 56.20375671 -0.73423767 54.86312866 C-0.71725327 53.4373995 -0.70037447 52.01166907 -0.68359375 50.5859375 C-0.66302479 49.13147387 -0.64202834 47.67701623 -0.62062073 46.2225647 C-0.56539396 42.39213912 -0.5159874 38.56165955 -0.46777344 34.73114014 C-0.4175628 30.8233153 -0.36187446 26.915569 -0.30664062 23.0078125 C-0.19905164 15.33860628 -0.09811448 7.66933436 0 0 Z " fill="#F9F9F9" transform="translate(1024,1465)"/>
<path d="M0 0 C5.7234953 3.39126021 10.09543112 8.5714907 12.1484375 14.953125 C14.14877107 25.38109344 13.22031358 35.31348363 7.625 44.4375 C3.45435246 49.41317951 -1.16311802 51.97592389 -7.65625 52.6875 C-14.75652741 53.03813098 -20.70102455 51.60610328 -26.1640625 46.89453125 C-33.33051536 39.18088618 -34.1491296 30.71206627 -33.78515625 20.58203125 C-33.25497542 13.23761406 -30.25838209 7.87324857 -24.875 2.9375 C-17.98258575 -2.65445873 -8.09684278 -3.63499878 0 0 Z " fill="#030303" transform="translate(1108.375,1484.5625)"/>
<path d="M0 0 C5.99645699 3.36998952 9.4766741 8.61752231 11.625 15.0625 C13.50694818 34.90633329 13.50694818 34.90633329 8.18359375 42.37109375 C3.49492438 47.45929885 -0.86597636 51.48286467 -7.98828125 52.3984375 C-16.07898961 52.51552445 -21.07447328 50.92295649 -27.1875 45.625 C-33.49581586 38.23525857 -34.83637748 31.15531974 -34.6953125 21.61328125 C-34.06894813 14.66980306 -31.50530567 7.91549185 -26.375 3.0625 C-18.30863457 -3.12916643 -9.35716903 -4.03835716 0 0 Z " fill="#030303" transform="translate(871.375,1484.9375)"/>
<path d="M0 0 C6.93 0 13.86 0 21 0 C21 29.7 21 59.4 21 90 C14.07 90 7.14 90 0 90 C0 60.3 0 30.6 0 0 Z " fill="#F9F9F9" transform="translate(1152,1465)"/>
</svg>
